<svg xmlns="http://www.w3.org/2000/svg" width="35.97" height="36" viewBox="0 0 35.97 36"><defs><style>.cls-1{fill-rule:evenodd;opacity:.2}</style></defs><path class="cls-1" d="M5.27 5.274A17.993 17.993 0 1 1 17.99 36a17.173 17.173 0 0 1-7.36-1.49 7.763 7.763 0 0 1-3.93-3.725 4.5 4.5 0 0 1 1.14-5.067l.05-.052a.719.719 0 0 0-.07-.074 2.424 2.424 0 0 1 .01-3.57l2.56-2.563a2.446 2.446 0 0 1 1.76-.8 2.479 2.479 0 0 1 1.77.792l1.34 1.334a1.408 1.408 0 0 1 .19-.1c.16-.081.31-.155.44-.237a15.864 15.864 0 0 0 3.76-3.429 9.514 9.514 0 0 0 1.14-1.756c-.34-.311-.65-.63-.95-.94-.13-.134-.26-.26-.39-.393a2.375 2.375 0 0 1 0-3.586l1.26-1.266c.15-.148.29-.289.43-.437.28-.289.57-.585.88-.874a2.477 2.477 0 0 1 1.74-.755 2.544 2.544 0 0 1 1.77.755c0 .008 0 .008.01.015l1.59 1.592a3.6 3.6 0 0 1 1.08 2.326 8.278 8.278 0 0 1-.61 3.563 20.206 20.206 0 0 1-3.6 6.015 22.2 22.2 0 0 1-7.37 5.778 11.716 11.716 0 0 1-4.19 1.237c-.11.007-.21.007-.32.007a3.766 3.766 0 0 1-2.87-1.237c-.01-.007-.02-.022-.03-.03a.7.7 0 0 0-.08-.088l-.04.044a2.719 2.719 0 0 0-.75 3.133c.85 2.023 4.16 4.1 9.64 4.1a16.234 16.234 0 1 0-15.63-11.9.892.892 0 0 1-1.72.474A17.992 17.992 0 0 1 5.27 5.274zm5.3 20.585a1.957 1.957 0 0 0 1.55.651 1.816 1.816 0 0 0 .2-.007 9.918 9.918 0 0 0 3.54-1.066 20.3 20.3 0 0 0 6.77-5.311 18.619 18.619 0 0 0 3.3-5.49 6.488 6.488 0 0 0 .51-2.8 1.831 1.831 0 0 0-.57-1.215l-1.59-1.585a.822.822 0 0 0-.52-.259.722.722 0 0 0-.5.252c-.01.007-.01.015-.02.022-.28.259-.55.534-.83.823-.15.148-.3.3-.45.452l-1.26 1.266a.639.639 0 0 0 0 1.074c.13.134.27.267.4.4.39.392.75.769 1.15 1.125a.09.09 0 0 1 .04.037 1.2 1.2 0 0 1 .3 1.326.147.147 0 0 1-.02.06 10.283 10.283 0 0 1-1.54 2.511l-.01.007a17.24 17.24 0 0 1-4.19 3.815c-.2.126-.4.229-.59.325-.16.082-.31.156-.44.238a.7.7 0 0 1-.08.044 1.25 1.25 0 0 1-.57.141 1.219 1.219 0 0 1-.89-.4l-1.59-1.593a.826.826 0 0 0-.52-.274.7.7 0 0 0-.48.259l-.02.015-2.56 2.563a.678.678 0 0 0 .01 1.089l.01.007c.17.186.36.363.56.556.29.29.6.594.9.942z"/></svg>