<svg xmlns="http://www.w3.org/2000/svg" width="20" height="16" viewBox="0 0 20 16"><defs><style>.cls-1{fill:#fff;fill-rule:evenodd}</style></defs><path id="Forma_1" data-name="Forma 1" class="cls-1" d="M510.615 42.546a1.362 1.362 0 0 1-.451 1.028 1.6 1.6 0 0 1-2.175 0 1.4 1.4 0 0 1 0-2.057 1.6 1.6 0 0 1 2.175 0 1.364 1.364 0 0 1 .451 1.029zm-4.387-12.879a.76.76 0 0 1 .541-.217h14.436c.008-.053.026-.149.054-.289l.066-.336a1.947 1.947 0 0 1 .09-.3.889.889 0 0 1 .156-.278.776.776 0 0 1 .583-.247h3.077a.759.759 0 0 1 .541.216.686.686 0 0 1 0 1.023.759.759 0 0 1-.541.216h-2.451l-2.128 9.354c.016.031.1.175.247.432s.266.483.354.677a1.2 1.2 0 0 1 .132.449.681.681 0 0 1-.228.512.763.763 0 0 1-.541.216h-12.308a.76.76 0 0 1-.541-.216.686.686 0 0 1 0-1.023.763.763 0 0 1 .541-.216h11.058a2.125 2.125 0 0 1-.289-.727 1.122 1.122 0 0 1 .031-.25c.02-.09.043-.191.072-.3s.046-.191.054-.244l-12.55-1.386a.76.76 0 0 1-.492-.245A.7.7 0 0 1 506 36v-5.821a.683.683 0 0 1 .228-.511zm15.157 12.879a1.362 1.362 0 0 1-.451 1.028 1.6 1.6 0 0 1-2.175 0 1.4 1.4 0 0 1 0-2.057 1.6 1.6 0 0 1 2.175 0 1.364 1.364 0 0 1 .451 1.029z" transform="translate(-506 -28)"/></svg>