<svg xmlns="http://www.w3.org/2000/svg" width="34" height="36" viewBox="0 0 34 36"><defs><style>.cls-1{fill-rule:evenodd;opacity:.2}</style></defs><path class="cls-1" d="M.014 8.487a.915.915 0 0 1 .094-.4.9.9 0 0 1 .631-.487L16.613.093a.967.967 0 0 1 .818 0l16.03 7.576a.913.913 0 0 1 .529.79v19.049a.9.9 0 0 1-.529.82L17.431 35.9a.017.017 0 0 0-.016.007.268.268 0 0 0-.07.031.185.185 0 0 1-.031.007l-.07.023c-.008 0-.016.008-.024.008s-.054.007-.078.015h-.023c-.031 0-.07.008-.1.008a.443.443 0 0 1-.1-.008h-.023a.316.316 0 0 1-.078-.015c-.008 0-.015-.008-.023-.008l-.07-.023a.213.213 0 0 0-.031-.007.313.313 0 0 1-.071-.031.016.016 0 0 1-.015-.007L.531 28.3a.916.916 0 0 1-.53-.82V8.509a.021.021 0 0 0 .013-.022zm17.012-6.566l-13.9 6.573 5.12 2.424 13.9-6.573zm0 13.145l13.9-6.572-6.64-3.138-13.9 6.572zM32.12 9.96l-14.159 6.7v16.967l14.159-6.7V9.96zM16.091 33.622V16.655l-6.648-3.147v4.438a.935.935 0 0 1-1.87 0v-5.327L1.881 9.93V26.9z"/></svg>