<svg xmlns="http://www.w3.org/2000/svg" width="36.969" height="37" viewBox="0 0 36.969 37"><defs><style>.cls-1{fill-rule:evenodd;opacity:.2}</style></defs><path id="Forma_1" data-name="Forma 1" class="cls-1" d="M919.708 115h20.808a4.628 4.628 0 0 1 4.623 4.625V133.5a4.628 4.628 0 0 1-4.623 4.625v5.782a1.155 1.155 0 0 1-1.908.877l-7.768-6.659h-11.132a4.629 4.629 0 0 1-4.624-4.625v-13.875a4.629 4.629 0 0 1 4.624-4.625zm-2.308 18.5a2.317 2.317 0 0 0 2.312 2.313h11.56a1.135 1.135 0 0 1 .751.28l6.185 5.3v-4.424a1.156 1.156 0 0 1 1.156-1.156h1.156a2.317 2.317 0 0 0 2.312-2.313v-13.875a2.317 2.317 0 0 0-2.312-2.313h-20.812a2.316 2.316 0 0 0-2.312 2.313V133.5zm-6.157-11.291a1.157 1.157 0 1 1 .754 2.187 2.287 2.287 0 0 0-1.533 2.167v13.875a2.316 2.316 0 0 0 2.312 2.312h1.156a1.157 1.157 0 0 1 1.156 1.157v4.424l6.185-5.3a1.136 1.136 0 0 1 .751-.281h10.242a1.157 1.157 0 0 1 0 2.313h-9.815l-7.768 6.658a1.146 1.146 0 0 1-1.234.173 1.156 1.156 0 0 1-.673-1.05v-5.781a4.629 4.629 0 0 1-4.624-4.625v-13.876a4.6 4.6 0 0 1 3.087-4.354z" transform="translate(-908.156 -115)"/></svg>